<svg width="207" height="207" viewBox="0 0 207 207" fill="none" xmlns="http://www.w3.org/2000/svg">
<rect width="207" height="207" rx="23" fill="white"/>
<g clip-path="url(#clip0_277_47)">
<path d="M36 34.2523H60.8358V171.638H36V34.2523Z" fill="#231F20"/>
<path d="M80.5896 127.298V70.8798H101.887V126.427C101.887 141.758 111.739 152.608 125.648 152.608C139.557 152.608 149.266 141.758 149.266 126.427V70.8798H170.711V127.298C170.711 153.48 152.018 172 125.648 172C99.2773 172 80.585 153.484 80.585 127.298H80.5896Z" fill="#231F20"/>
<path d="M80.3916 47.8775C80.3916 40.3217 86.7235 34 94.1903 34C101.657 34 107.934 40.3217 107.934 47.8775C107.934 55.4333 101.652 61.8055 94.1903 61.8055C86.7281 61.8055 80.3916 55.4333 80.3916 47.8775ZM106.082 47.8775C106.082 41.3494 100.623 35.8488 94.1903 35.8488C87.7573 35.8488 82.248 41.3494 82.248 47.8775C82.248 54.4057 87.7068 59.9567 94.1903 59.9567C100.674 59.9567 106.082 54.4562 106.082 47.8775Z" fill="#231F20"/>
<path d="M108.09 34.6147H109.997L117.978 58.7181L125.95 34.6147H127.545L135.526 58.7181L143.508 34.6147H145.415L136.661 61.1862H134.345L126.727 38.0554L119.109 61.1862H116.793L108.09 34.6147Z" fill="#231F20"/>
<path d="M168.169 56.305L169.456 57.6904C167.241 60.1081 162.609 61.8009 158.336 61.8009C151.232 61.8009 145.259 55.4287 145.259 47.8225C145.259 40.2162 151.025 34 158.336 34C165.647 34 171 39.9088 171 48.7492H147.166C147.579 54.9149 152.569 59.9521 158.336 59.9521C162.145 59.9521 165.955 58.7181 168.169 56.305ZM147.166 46.9004H169.148C168.84 40.2713 164.617 35.8488 158.336 35.8488C152.055 35.8488 147.575 40.6796 147.166 46.9004Z" fill="#231F20"/>
</g>
<defs>
<clipPath id="clip0_277_47">
<rect width="135" height="138" fill="white" transform="translate(36 34)"/>
</clipPath>
</defs>
</svg>
